%TF.GenerationSoftware,KiCad,Pcbnew,10.0.0*%
%TF.CreationDate,2026-04-15T11:24:28-03:00*%
%TF.ProjectId,Arrancando,41727261-6e63-4616-9e64-6f2e6b696361,rev?*%
%TF.SameCoordinates,Original*%
%TF.FileFunction,Legend,Bot*%
%TF.FilePolarity,Positive*%
%FSLAX46Y46*%
G04 Gerber Fmt 4.6, Leading zero omitted, Abs format (unit mm)*
G04 Created by KiCad (PCBNEW 10.0.0) date 2026-04-15 11:24:28*
%MOMM*%
%LPD*%
G01*
G04 APERTURE LIST*
%ADD10C,0.150000*%
%ADD11C,0.120000*%
G04 APERTURE END LIST*
D10*
X136785714Y-107551009D02*
X136642857Y-107598628D01*
X136642857Y-107598628D02*
X136595238Y-107646247D01*
X136595238Y-107646247D02*
X136547619Y-107741485D01*
X136547619Y-107741485D02*
X136547619Y-107884342D01*
X136547619Y-107884342D02*
X136595238Y-107979580D01*
X136595238Y-107979580D02*
X136642857Y-108027200D01*
X136642857Y-108027200D02*
X136738095Y-108074819D01*
X136738095Y-108074819D02*
X137119047Y-108074819D01*
X137119047Y-108074819D02*
X137119047Y-107074819D01*
X137119047Y-107074819D02*
X136785714Y-107074819D01*
X136785714Y-107074819D02*
X136690476Y-107122438D01*
X136690476Y-107122438D02*
X136642857Y-107170057D01*
X136642857Y-107170057D02*
X136595238Y-107265295D01*
X136595238Y-107265295D02*
X136595238Y-107360533D01*
X136595238Y-107360533D02*
X136642857Y-107455771D01*
X136642857Y-107455771D02*
X136690476Y-107503390D01*
X136690476Y-107503390D02*
X136785714Y-107551009D01*
X136785714Y-107551009D02*
X137119047Y-107551009D01*
X136261904Y-107074819D02*
X135690476Y-107074819D01*
X135976190Y-108074819D02*
X135976190Y-107074819D01*
X134833333Y-108074819D02*
X135404761Y-108074819D01*
X135119047Y-108074819D02*
X135119047Y-107074819D01*
X135119047Y-107074819D02*
X135214285Y-107217676D01*
X135214285Y-107217676D02*
X135309523Y-107312914D01*
X135309523Y-107312914D02*
X135404761Y-107360533D01*
%TO.C,BT1*%
D11*
X128154629Y-108111789D02*
G75*
G02*
X125308000Y-103610000I7845391J8111801D01*
G01*
X125308000Y-96390000D02*
G75*
G02*
X128154629Y-91888211I10692000J-3610000D01*
G01*
X146692000Y-103610000D02*
G75*
G02*
X143845371Y-108111789I-10691995J3609996D01*
G01*
X143845371Y-91888211D02*
G75*
G02*
X146691999Y-96390000I-7845391J-8111799D01*
G01*
X121690000Y-103610000D02*
X125308000Y-103610000D01*
X121690000Y-101900000D02*
X121690000Y-103610000D01*
X121690000Y-98100000D02*
X121690000Y-96390000D01*
X125308000Y-96390000D02*
X121690000Y-96390000D01*
X128152700Y-108110000D02*
X132140000Y-108110000D01*
X134340000Y-105910000D02*
X132140000Y-108110000D01*
X134340000Y-105910000D02*
X137660000Y-105910000D01*
X137660000Y-105910000D02*
X139860000Y-108110000D01*
X139860000Y-108110000D02*
X143847300Y-108110000D01*
X143847300Y-91890000D02*
X128152700Y-91890000D01*
X146692000Y-103610000D02*
X150310000Y-103610000D01*
X150310000Y-101900000D02*
X150310000Y-103610000D01*
X150310000Y-98100000D02*
X150310000Y-96390000D01*
X150310000Y-96390000D02*
X146692000Y-96390000D01*
%TD*%
M02*
