%TF.GenerationSoftware,KiCad,Pcbnew,10.0.0*%
%TF.CreationDate,2026-04-15T11:24:27-03:00*%
%TF.ProjectId,Arrancando,41727261-6e63-4616-9e64-6f2e6b696361,rev?*%
%TF.SameCoordinates,Original*%
%TF.FileFunction,Copper,L2,Bot*%
%TF.FilePolarity,Positive*%
%FSLAX46Y46*%
G04 Gerber Fmt 4.6, Leading zero omitted, Abs format (unit mm)*
G04 Created by KiCad (PCBNEW 10.0.0) date 2026-04-15 11:24:27*
%MOMM*%
%LPD*%
G01*
G04 APERTURE LIST*
%TA.AperFunction,ComponentPad*%
%ADD10C,1.600000*%
%TD*%
%TA.AperFunction,SMDPad,CuDef*%
%ADD11R,2.540000X3.510000*%
%TD*%
%TA.AperFunction,ComponentPad*%
%ADD12R,1.800000X1.800000*%
%TD*%
%TA.AperFunction,ComponentPad*%
%ADD13C,1.800000*%
%TD*%
%TA.AperFunction,ViaPad*%
%ADD14C,0.600000*%
%TD*%
%TA.AperFunction,Conductor*%
%ADD15C,0.400000*%
%TD*%
G04 APERTURE END LIST*
D10*
%TO.P,R1,1*%
%TO.N,Net-(D1-K)*%
X134000000Y-117027444D03*
%TO.P,R1,2*%
%TO.N,GND*%
X121300000Y-117027444D03*
%TD*%
D11*
%TO.P,BT1,2,-_2*%
%TO.N,GND*%
X121320000Y-100000000D03*
%TO.P,BT1,1,+_1*%
%TO.N,VCC*%
X150680000Y-100000000D03*
%TD*%
D12*
%TO.P,D1,1,K_1*%
%TO.N,Net-(D1-K)*%
X150643120Y-117074486D03*
D13*
%TO.P,D1,2,A_2*%
%TO.N,VCC*%
X150643120Y-114534486D03*
%TD*%
D14*
%TO.N,VCC*%
X151000000Y-108000000D03*
%TD*%
%TO.N,GND*%
D15*
X121320000Y-100000000D02*
X121320000Y-117020000D01*
X121312556Y-117027444D02*
X121300000Y-117027444D01*
X121320000Y-117020000D02*
X121312556Y-117027444D01*
%TO.N,VCC*%
X150680000Y-107680000D02*
X151000000Y-108000000D01*
X150680000Y-100000000D02*
X150680000Y-107680000D01*
X150680000Y-114497606D02*
X150643120Y-114534486D01*
%TD*%
%TA.AperFunction,Conductor*%
%TO.N,GND*%
G36*
X158943039Y-86520184D02*
G01*
X158988794Y-86572988D01*
X159000000Y-86624499D01*
X159000000Y-123375500D01*
X158980315Y-123442539D01*
X158927511Y-123488294D01*
X158876000Y-123499500D01*
X113624500Y-123499500D01*
X113557461Y-123479815D01*
X113511706Y-123427011D01*
X113500500Y-123375500D01*
X113500500Y-116925126D01*
X120000000Y-116925126D01*
X120000000Y-117129761D01*
X120032009Y-117331861D01*
X120095244Y-117526475D01*
X120188141Y-117708794D01*
X120188147Y-117708803D01*
X120220523Y-117753365D01*
X120220524Y-117753366D01*
X120900000Y-117073890D01*
X120900000Y-117080105D01*
X120927259Y-117181838D01*
X120979920Y-117273050D01*
X121054394Y-117347524D01*
X121145606Y-117400185D01*
X121247339Y-117427444D01*
X121253553Y-117427444D01*
X120574076Y-118106918D01*
X120618650Y-118139303D01*
X120800968Y-118232199D01*
X120995582Y-118295434D01*
X121197683Y-118327444D01*
X121402317Y-118327444D01*
X121604417Y-118295434D01*
X121799031Y-118232199D01*
X121981349Y-118139303D01*
X122025921Y-118106918D01*
X121346447Y-117427444D01*
X121352661Y-117427444D01*
X121454394Y-117400185D01*
X121545606Y-117347524D01*
X121620080Y-117273050D01*
X121672741Y-117181838D01*
X121700000Y-117080105D01*
X121700000Y-117073891D01*
X122379474Y-117753365D01*
X122411859Y-117708793D01*
X122504755Y-117526475D01*
X122567990Y-117331861D01*
X122600000Y-117129761D01*
X122600000Y-116925126D01*
X122599995Y-116925092D01*
X132699500Y-116925092D01*
X132699500Y-117129795D01*
X132731522Y-117331978D01*
X132794781Y-117526667D01*
X132858691Y-117652097D01*
X132887585Y-117708803D01*
X132887715Y-117709057D01*
X133008028Y-117874657D01*
X133152786Y-118019415D01*
X133273226Y-118106918D01*
X133318390Y-118139731D01*
X133434607Y-118198947D01*
X133500776Y-118232662D01*
X133500778Y-118232662D01*
X133500781Y-118232664D01*
X133605137Y-118266571D01*
X133695465Y-118295921D01*
X133796557Y-118311932D01*
X133897648Y-118327944D01*
X133897649Y-118327944D01*
X134102351Y-118327944D01*
X134102352Y-118327944D01*
X134304534Y-118295921D01*
X134499219Y-118232664D01*
X134681610Y-118139731D01*
X134774590Y-118072176D01*
X134847213Y-118019415D01*
X134847215Y-118019412D01*
X134847219Y-118019410D01*
X134991966Y-117874663D01*
X134991968Y-117874659D01*
X134991971Y-117874657D01*
X135044732Y-117802034D01*
X135112287Y-117709054D01*
X135205220Y-117526663D01*
X135268477Y-117331978D01*
X135300500Y-117129796D01*
X135300500Y-116925092D01*
X135292257Y-116873050D01*
X135268477Y-116722909D01*
X135237458Y-116627444D01*
X135205220Y-116528225D01*
X135205218Y-116528222D01*
X135205218Y-116528220D01*
X135112419Y-116346094D01*
X135112287Y-116345834D01*
X135080092Y-116301521D01*
X134991971Y-116180230D01*
X134847213Y-116035472D01*
X134681613Y-115915159D01*
X134681612Y-115915158D01*
X134681610Y-115915157D01*
X134624653Y-115886135D01*
X134499223Y-115822225D01*
X134304534Y-115758966D01*
X134129995Y-115731322D01*
X134102352Y-115726944D01*
X133897648Y-115726944D01*
X133874010Y-115730688D01*
X133695465Y-115758966D01*
X133500776Y-115822225D01*
X133318386Y-115915159D01*
X133152786Y-116035472D01*
X133008028Y-116180230D01*
X132887715Y-116345830D01*
X132794781Y-116528220D01*
X132731522Y-116722909D01*
X132699500Y-116925092D01*
X122599995Y-116925092D01*
X122567990Y-116723026D01*
X122504755Y-116528412D01*
X122411859Y-116346094D01*
X122379474Y-116301521D01*
X122379474Y-116301520D01*
X121700000Y-116980995D01*
X121700000Y-116974783D01*
X121672741Y-116873050D01*
X121620080Y-116781838D01*
X121545606Y-116707364D01*
X121454394Y-116654703D01*
X121352661Y-116627444D01*
X121346446Y-116627444D01*
X122025922Y-115947968D01*
X122025921Y-115947967D01*
X121981359Y-115915591D01*
X121981350Y-115915585D01*
X121799031Y-115822688D01*
X121604417Y-115759453D01*
X121402317Y-115727444D01*
X121197683Y-115727444D01*
X120995582Y-115759453D01*
X120800968Y-115822688D01*
X120618644Y-115915587D01*
X120574077Y-115947967D01*
X120574077Y-115947968D01*
X121253554Y-116627444D01*
X121247339Y-116627444D01*
X121145606Y-116654703D01*
X121054394Y-116707364D01*
X120979920Y-116781838D01*
X120927259Y-116873050D01*
X120900000Y-116974783D01*
X120900000Y-116980997D01*
X120220524Y-116301521D01*
X120220523Y-116301521D01*
X120188143Y-116346088D01*
X120095244Y-116528412D01*
X120032009Y-116723026D01*
X120000000Y-116925126D01*
X113500500Y-116925126D01*
X113500500Y-114424264D01*
X149242620Y-114424264D01*
X149242620Y-114644707D01*
X149277105Y-114862438D01*
X149345223Y-115072089D01*
X149345224Y-115072092D01*
X149445307Y-115268511D01*
X149574872Y-115446844D01*
X149574876Y-115446849D01*
X149625048Y-115497021D01*
X149658533Y-115558344D01*
X149653549Y-115628036D01*
X149611677Y-115683969D01*
X149580701Y-115700884D01*
X149500789Y-115730689D01*
X149500784Y-115730692D01*
X149385575Y-115816938D01*
X149385572Y-115816941D01*
X149299326Y-115932150D01*
X149299322Y-115932157D01*
X149249028Y-116067003D01*
X149242621Y-116126602D01*
X149242621Y-116126609D01*
X149242620Y-116126621D01*
X149242620Y-118022356D01*
X149242621Y-118022362D01*
X149249028Y-118081969D01*
X149299322Y-118216814D01*
X149299326Y-118216821D01*
X149385572Y-118332030D01*
X149385575Y-118332033D01*
X149500784Y-118418279D01*
X149500791Y-118418283D01*
X149635637Y-118468577D01*
X149635636Y-118468577D01*
X149642564Y-118469321D01*
X149695247Y-118474986D01*
X151590992Y-118474985D01*
X151650603Y-118468577D01*
X151785451Y-118418282D01*
X151900666Y-118332032D01*
X151986916Y-118216817D01*
X152037211Y-118081969D01*
X152043620Y-118022359D01*
X152043619Y-116126614D01*
X152037211Y-116067003D01*
X151992813Y-115947967D01*
X151986917Y-115932157D01*
X151986913Y-115932150D01*
X151900667Y-115816941D01*
X151900664Y-115816938D01*
X151785455Y-115730692D01*
X151785448Y-115730688D01*
X151705539Y-115700884D01*
X151649605Y-115659013D01*
X151625188Y-115593548D01*
X151640040Y-115525275D01*
X151661189Y-115497023D01*
X151711362Y-115446851D01*
X151840935Y-115268508D01*
X151941015Y-115072092D01*
X152009135Y-114862437D01*
X152043620Y-114644708D01*
X152043620Y-114424264D01*
X152009135Y-114206535D01*
X151941015Y-113996880D01*
X151941015Y-113996879D01*
X151906357Y-113928861D01*
X151840935Y-113800464D01*
X151824380Y-113777678D01*
X151711367Y-113622127D01*
X151711363Y-113622122D01*
X151555483Y-113466242D01*
X151555478Y-113466238D01*
X151377145Y-113336673D01*
X151377144Y-113336672D01*
X151377142Y-113336671D01*
X151314216Y-113304608D01*
X151180726Y-113236590D01*
X151180723Y-113236589D01*
X150971072Y-113168471D01*
X150862206Y-113151228D01*
X150753342Y-113133986D01*
X150532898Y-113133986D01*
X150460321Y-113145481D01*
X150315167Y-113168471D01*
X150105516Y-113236589D01*
X150105513Y-113236590D01*
X149909094Y-113336673D01*
X149730761Y-113466238D01*
X149730756Y-113466242D01*
X149574876Y-113622122D01*
X149574872Y-113622127D01*
X149445307Y-113800460D01*
X149345224Y-113996879D01*
X149345223Y-113996882D01*
X149277105Y-114206533D01*
X149242620Y-114424264D01*
X113500500Y-114424264D01*
X113500500Y-101802844D01*
X119550000Y-101802844D01*
X119556401Y-101862372D01*
X119556403Y-101862379D01*
X119606645Y-101997086D01*
X119606649Y-101997093D01*
X119692809Y-102112187D01*
X119692812Y-102112190D01*
X119807906Y-102198350D01*
X119807913Y-102198354D01*
X119942620Y-102248596D01*
X119942627Y-102248598D01*
X120002155Y-102254999D01*
X120002172Y-102255000D01*
X121070000Y-102255000D01*
X121570000Y-102255000D01*
X122637828Y-102255000D01*
X122637844Y-102254999D01*
X122697372Y-102248598D01*
X122697379Y-102248596D01*
X122832086Y-102198354D01*
X122832093Y-102198350D01*
X122947187Y-102112190D01*
X122947190Y-102112187D01*
X123033350Y-101997093D01*
X123033354Y-101997086D01*
X123083596Y-101862379D01*
X123083598Y-101862372D01*
X123089999Y-101802844D01*
X123090000Y-101802827D01*
X123090000Y-100250000D01*
X121570000Y-100250000D01*
X121570000Y-102255000D01*
X121070000Y-102255000D01*
X121070000Y-100250000D01*
X119550000Y-100250000D01*
X119550000Y-101802844D01*
X113500500Y-101802844D01*
X113500500Y-98197155D01*
X119550000Y-98197155D01*
X119550000Y-99750000D01*
X121070000Y-99750000D01*
X121570000Y-99750000D01*
X123090000Y-99750000D01*
X123090000Y-98197164D01*
X123089997Y-98197135D01*
X148909500Y-98197135D01*
X148909500Y-101802870D01*
X148909501Y-101802876D01*
X148915908Y-101862483D01*
X148966202Y-101997328D01*
X148966206Y-101997335D01*
X149052452Y-102112544D01*
X149052455Y-102112547D01*
X149167664Y-102198793D01*
X149167671Y-102198797D01*
X149212618Y-102215561D01*
X149302517Y-102249091D01*
X149362127Y-102255500D01*
X149855500Y-102255499D01*
X149922539Y-102275183D01*
X149968294Y-102327987D01*
X149979500Y-102379499D01*
X149979500Y-107611006D01*
X149979500Y-107748994D01*
X149979500Y-107748996D01*
X149979499Y-107748996D01*
X150006418Y-107884322D01*
X150006421Y-107884332D01*
X150059222Y-108011807D01*
X150135885Y-108126542D01*
X150203929Y-108194586D01*
X150230809Y-108234815D01*
X150290602Y-108379172D01*
X150290609Y-108379185D01*
X150378210Y-108510288D01*
X150378213Y-108510292D01*
X150489707Y-108621786D01*
X150489711Y-108621789D01*
X150620814Y-108709390D01*
X150620827Y-108709397D01*
X150766498Y-108769735D01*
X150766503Y-108769737D01*
X150921153Y-108800499D01*
X150921156Y-108800500D01*
X150921158Y-108800500D01*
X151078844Y-108800500D01*
X151078845Y-108800499D01*
X151233497Y-108769737D01*
X151379179Y-108709394D01*
X151510289Y-108621789D01*
X151621789Y-108510289D01*
X151709394Y-108379179D01*
X151769737Y-108233497D01*
X151800500Y-108078842D01*
X151800500Y-107921158D01*
X151800500Y-107921155D01*
X151800499Y-107921153D01*
X151769738Y-107766510D01*
X151769737Y-107766503D01*
X151769735Y-107766498D01*
X151709397Y-107620827D01*
X151709390Y-107620814D01*
X151621789Y-107489711D01*
X151621786Y-107489707D01*
X151510292Y-107378213D01*
X151435608Y-107328310D01*
X151390804Y-107274697D01*
X151380500Y-107225208D01*
X151380500Y-102379499D01*
X151400185Y-102312460D01*
X151452989Y-102266705D01*
X151504500Y-102255499D01*
X151997871Y-102255499D01*
X151997872Y-102255499D01*
X152057483Y-102249091D01*
X152192331Y-102198796D01*
X152307546Y-102112546D01*
X152393796Y-101997331D01*
X152444091Y-101862483D01*
X152450500Y-101802873D01*
X152450499Y-98197128D01*
X152444091Y-98137517D01*
X152393884Y-98002906D01*
X152393797Y-98002671D01*
X152393793Y-98002664D01*
X152307547Y-97887455D01*
X152307544Y-97887452D01*
X152192335Y-97801206D01*
X152192328Y-97801202D01*
X152057482Y-97750908D01*
X152057483Y-97750908D01*
X151997883Y-97744501D01*
X151997881Y-97744500D01*
X151997873Y-97744500D01*
X151997864Y-97744500D01*
X149362129Y-97744500D01*
X149362123Y-97744501D01*
X149302516Y-97750908D01*
X149167671Y-97801202D01*
X149167664Y-97801206D01*
X149052455Y-97887452D01*
X149052452Y-97887455D01*
X148966206Y-98002664D01*
X148966202Y-98002671D01*
X148915908Y-98137517D01*
X148909501Y-98197116D01*
X148909501Y-98197123D01*
X148909500Y-98197135D01*
X123089997Y-98197135D01*
X123083598Y-98137627D01*
X123083596Y-98137620D01*
X123033354Y-98002913D01*
X123033350Y-98002906D01*
X122947190Y-97887812D01*
X122947187Y-97887809D01*
X122832093Y-97801649D01*
X122832086Y-97801645D01*
X122697379Y-97751403D01*
X122697372Y-97751401D01*
X122637844Y-97745000D01*
X121570000Y-97745000D01*
X121570000Y-99750000D01*
X121070000Y-99750000D01*
X121070000Y-97745000D01*
X120002155Y-97745000D01*
X119942627Y-97751401D01*
X119942620Y-97751403D01*
X119807913Y-97801645D01*
X119807906Y-97801649D01*
X119692812Y-97887809D01*
X119692809Y-97887812D01*
X119606649Y-98002906D01*
X119606645Y-98002913D01*
X119556403Y-98137620D01*
X119556401Y-98137627D01*
X119550000Y-98197155D01*
X113500500Y-98197155D01*
X113500500Y-86624499D01*
X113520185Y-86557460D01*
X113572989Y-86511705D01*
X113624500Y-86500499D01*
X158876000Y-86500499D01*
X158943039Y-86520184D01*
G37*
%TD.AperFunction*%
%TD*%
M02*
