%TF.GenerationSoftware,KiCad,Pcbnew,10.0.0*%
%TF.CreationDate,2026-04-15T11:24:28-03:00*%
%TF.ProjectId,Arrancando,41727261-6e63-4616-9e64-6f2e6b696361,rev?*%
%TF.SameCoordinates,Original*%
%TF.FileFunction,Legend,Top*%
%TF.FilePolarity,Positive*%
%FSLAX46Y46*%
G04 Gerber Fmt 4.6, Leading zero omitted, Abs format (unit mm)*
G04 Created by KiCad (PCBNEW 10.0.0) date 2026-04-15 11:24:28*
%MOMM*%
%LPD*%
G01*
G04 APERTURE LIST*
%ADD10C,0.150000*%
%ADD11C,0.120000*%
G04 APERTURE END LIST*
D10*
X127483333Y-120202263D02*
X127150000Y-119726072D01*
X126911905Y-120202263D02*
X126911905Y-119202263D01*
X126911905Y-119202263D02*
X127292857Y-119202263D01*
X127292857Y-119202263D02*
X127388095Y-119249882D01*
X127388095Y-119249882D02*
X127435714Y-119297501D01*
X127435714Y-119297501D02*
X127483333Y-119392739D01*
X127483333Y-119392739D02*
X127483333Y-119535596D01*
X127483333Y-119535596D02*
X127435714Y-119630834D01*
X127435714Y-119630834D02*
X127388095Y-119678453D01*
X127388095Y-119678453D02*
X127292857Y-119726072D01*
X127292857Y-119726072D02*
X126911905Y-119726072D01*
X128435714Y-120202263D02*
X127864286Y-120202263D01*
X128150000Y-120202263D02*
X128150000Y-119202263D01*
X128150000Y-119202263D02*
X128054762Y-119345120D01*
X128054762Y-119345120D02*
X127959524Y-119440358D01*
X127959524Y-119440358D02*
X127864286Y-119487977D01*
X146722939Y-116542580D02*
X145722939Y-116542580D01*
X145722939Y-116542580D02*
X145722939Y-116304485D01*
X145722939Y-116304485D02*
X145770558Y-116161628D01*
X145770558Y-116161628D02*
X145865796Y-116066390D01*
X145865796Y-116066390D02*
X145961034Y-116018771D01*
X145961034Y-116018771D02*
X146151510Y-115971152D01*
X146151510Y-115971152D02*
X146294367Y-115971152D01*
X146294367Y-115971152D02*
X146484843Y-116018771D01*
X146484843Y-116018771D02*
X146580081Y-116066390D01*
X146580081Y-116066390D02*
X146675320Y-116161628D01*
X146675320Y-116161628D02*
X146722939Y-116304485D01*
X146722939Y-116304485D02*
X146722939Y-116542580D01*
X146722939Y-115018771D02*
X146722939Y-115590199D01*
X146722939Y-115304485D02*
X145722939Y-115304485D01*
X145722939Y-115304485D02*
X145865796Y-115399723D01*
X145865796Y-115399723D02*
X145961034Y-115494961D01*
X145961034Y-115494961D02*
X146008653Y-115590199D01*
%TO.C,R1*%
D11*
X132960000Y-117027444D02*
X132270000Y-117027444D01*
X122340000Y-117027444D02*
X123030000Y-117027444D01*
X123030000Y-115307444D02*
X132270000Y-115307444D01*
X132270000Y-118747444D01*
X123030000Y-118747444D01*
X123030000Y-115307444D01*
%TO.C,D1*%
X149098120Y-118364486D02*
X152188120Y-118364486D01*
X149098290Y-118364486D02*
G75*
G02*
X150643120Y-112814486I1544830J2560000D01*
G01*
X150643120Y-112814486D02*
G75*
G02*
X152187950Y-118364486I0J-2990000D01*
G01*
X153143120Y-115804486D02*
G75*
G02*
X148143120Y-115804486I-2500000J0D01*
G01*
X148143120Y-115804486D02*
G75*
G02*
X153143120Y-115804486I2500000J0D01*
G01*
%TD*%
M02*
